<?xml version="1.0" encoding="iso-8859-1"?>
<!-- Generator: Adobe Illustrator 16.0.0, SVG Export Plug-In . SVG Version: 6.00 Build 0)  -->
<!DOCTYPE svg PUBLIC "-//W3C//DTD SVG 1.1//EN" "http://www.w3.org/Graphics/SVG/1.1/DTD/svg11.dtd">
<svg version="1.1" id="Capa_1" xmlns="http://www.w3.org/2000/svg" xmlns:xlink="http://www.w3.org/1999/xlink" x="0px" y="0px"
	 width="64.027px" height="64.027px" viewBox="0 0 64.027 64.027" style="enable-background:new 0 0 64.027 64.027;"
	 xml:space="preserve">
<g>
	<g>
		<path d="M32.014,29.736c6.773,0,11.833-8.906,11.833-16.868C43.847,5.171,39.093,0,32.014,0c-7.078,0-11.833,5.171-11.833,12.868
			C20.18,20.83,25.241,29.736,32.014,29.736z M32.014,2c5.974,0,9.833,4.266,9.833,10.868c0,6.875-4.295,14.868-9.833,14.868
			c-5.538,0-9.833-7.993-9.833-14.868C22.18,6.266,26.04,2,32.014,2z"/>
		<path d="M44.044,31.554l9.887-9.887c0.392-0.391,0.392-1.023,0-1.414c-0.391-0.391-1.022-0.391-1.414,0L42.466,30.306
			c-0.896-0.75-1.5-1.323-1.703-1.521c-0.209-0.205-0.498-0.312-0.791-0.281c-0.291,0.027-0.558,0.181-0.727,0.421
			c-1.868,2.66-4.504,4.187-7.232,4.187s-5.364-1.526-7.232-4.187c-0.168-0.24-0.434-0.394-0.727-0.421
			c-0.29-0.024-0.582,0.076-0.791,0.281c-0.187,0.183-0.725,0.692-1.51,1.359l-9.89-9.89c-0.391-0.391-1.023-0.391-1.414,0
			c-0.391,0.391-0.391,1.023,0,1.414l9.734,9.734c-3.108,2.363-8.121,5.422-13.274,5.422c-0.552,0-1,0.449-1,1v11.375
			c0,0.553,0.448,1,1,1h5.814c0.552,0,1-0.447,1-1c0-0.551-0.448-1-1-1H7.909v-9.406c5.49-0.354,10.56-3.516,13.71-5.955
			l9.157,9.156L10.45,62.32c-0.391,0.392-0.391,1.023,0,1.414c0.195,0.195,0.451,0.293,0.707,0.293s0.512-0.098,0.707-0.293
			l20.327-20.326l20.326,20.326c0.195,0.195,0.451,0.293,0.707,0.293s0.513-0.098,0.707-0.293c0.392-0.391,0.392-1.022,0-1.414
			L33.604,41.994l9.002-9.002c3.162,2.416,8.138,5.455,13.511,5.8v9.407h-5.53c-0.552,0-1,0.447-1,1c0,0.552,0.448,1,1,1h6.531
			c0.552,0,1-0.448,1-1V37.824c0-0.551-0.448-1-1-1C52.076,36.824,47.165,33.894,44.044,31.554z M32.19,40.58l-9.013-9.013
			c0.242-0.208,0.469-0.407,0.664-0.583c2.193,2.635,5.12,4.125,8.172,4.125s5.979-1.49,8.171-4.125
			c0.244,0.22,0.537,0.476,0.854,0.746L32.19,40.58z"/>
	</g>
</g>
<g>
</g>
<g>
</g>
<g>
</g>
<g>
</g>
<g>
</g>
<g>
</g>
<g>
</g>
<g>
</g>
<g>
</g>
<g>
</g>
<g>
</g>
<g>
</g>
<g>
</g>
<g>
</g>
<g>
</g>
</svg>
